<?xml version="1.0" encoding="UTF-8" standalone="no"?>
<!DOCTYPE svg PUBLIC "-//W3C//DTD SVG 1.1//EN" "http://www.w3.org/Graphics/SVG/1.1/DTD/svg11.dtd">
<svg width="100%" height="100%" viewBox="0 0 2524 520" version="1.1" xmlns="http://www.w3.org/2000/svg" xmlns:xlink="http://www.w3.org/1999/xlink" xml:space="preserve" xmlns:serif="http://www.serif.com/" style="fill-rule:evenodd;clip-rule:evenodd;stroke-linejoin:round;stroke-miterlimit:2;">
    <g transform="matrix(1,0,0,1,-159,-494)">
        <g id="Background" transform="matrix(2.75,0,0,2.75,0,0)">
            <g transform="matrix(0.363636,0,0,0.363636,0,0)">
                <rect x="159" y="494" width="2524" height="520" style="fill:rgb(251,241,199);"/>
            </g>
            <path d="M873.935,241.498C873.925,233.499 873.915,225.499 873.905,217.499C873.894,208.36 873.177,206.21 876.491,206.176C880.99,206.129 923.419,206.168 927.5,206.172C946.834,206.19 947.512,205.823 948.133,207.576C948.31,208.074 948.219,313.306 948.211,322.5C948.195,341.595 948.606,342.525 946.578,342.895C946.022,342.997 907.865,342.938 904.499,342.933C876.381,342.89 874.596,343.615 873.951,341.428C873.844,341.063 873.978,242.758 873.935,241.498Z" style="fill:rgb(215,153,33);"/>
            <path d="M236.925,296.428C229.743,243.231 263.025,237.591 275.623,242.16C285.363,245.693 287.591,253.036 287.81,253.09C288.009,253.139 289.157,252.585 289.216,252.425C289.243,252.353 288.558,252.367 288.656,215.501C288.666,211.773 290.527,212.609 299.5,212.595C309.04,212.58 310.831,211.745 310.849,215.501L310.868,307.501C310.867,321.097 311.404,322.471 308.504,322.595C308.501,322.596 291.866,322.622 291.493,322.591C290.326,322.493 288.854,322.659 289.185,315.515C289.198,315.237 289.511,308.51 287.485,312.485C286.767,313.894 282.168,322.919 271.452,324.059C243.471,327.034 238.547,303.406 236.925,296.428ZM276.447,258.91C275.982,258.909 272.495,258.423 268.613,259.808C268.293,259.922 266.633,260.514 264.972,261.99C257.509,268.621 256.441,295.841 265.434,303.576C267.499,305.352 287.192,313.913 288.539,289.502C290.174,259.893 282.407,260.18 276.447,258.91Z" style="fill:rgb(60,56,54);"/>
            <path d="M856.044,274.561C856.573,280.541 858.499,295.909 849.101,310.204C837.708,327.533 802.828,330.495 787.782,311.288C776.642,297.067 774.838,262.879 793.161,249.082C798.243,245.256 806.92,238.925 827.439,241.847C833.077,242.65 842.568,247.447 847.072,252.887C854.541,261.91 854.85,268.73 856.044,274.561ZM820.447,258.965C819.521,258.952 817.733,258.658 814.437,259.192C797.871,261.874 803.055,292.478 804.253,296.574C808.328,310.509 832.346,312.054 833.081,288.471C833.709,268.337 831.11,261.158 820.447,258.965Z" style="fill:rgb(60,56,54);"/>
            <path d="M396.502,322.902C394.442,322.855 385.039,323.812 380.827,315.338C380.704,315.091 379.434,309.625 377.917,311.861C376.479,313.981 372.132,326.229 349.543,324.05C340.306,323.159 327.317,316.33 328.629,297.509C329.536,284.48 336.052,273.235 372.498,273.936C374.616,273.977 376.508,274.397 376.551,271.501C376.574,269.973 378.381,255.637 361.494,257.437C351.169,258.537 352.796,266.659 349.511,266.348C348.386,266.241 348.412,266.079 335.47,264.727C333.907,264.564 331.11,264.456 331.335,262.492C332.469,252.597 342.275,246.687 343.696,245.831C356.076,238.371 394.491,236.462 398.373,262.52C399.798,272.084 397.87,302.839 399.511,304.487C400.825,305.806 406.727,303.599 406.859,307.469C407.34,321.567 406.54,321.848 405.42,322.241C404.116,322.699 397.217,322.883 396.502,322.902ZM376.088,298.391C376.211,297.55 377.403,289.365 376.167,287.764C375.644,287.087 375.433,286.813 365.49,287.159C345.999,287.836 350.259,302.29 353.543,305.454C358.027,309.772 367.034,307.508 367.457,307.363C375.057,304.766 375.888,298.943 376.088,298.391Z" style="fill:rgb(60,56,54);"/>
            <path d="M639.155,297.012C640.405,294.388 654.923,245.258 656.6,243.611C657.388,242.837 658.985,243.114 676.508,243.082C681.775,243.072 678.051,246.066 673.648,258.556C673.599,258.696 646.5,329.376 643.507,336.503C636.086,354.179 620.093,352.741 605.498,352.599C602.587,352.57 603.145,351.132 603.119,338.503C603.11,333.926 605.415,335.36 614.499,335.215C622.038,335.094 622.727,334.126 626.673,323.571C627.967,320.112 625.249,317.179 622.282,308.573C621.522,306.366 597.795,246.072 597.532,245.487C596.209,242.544 598.289,243.086 601.499,243.09C619.055,243.109 619.695,242.606 620.533,244.485C622.833,249.647 622.327,249.992 629.69,270.425C631.568,275.635 636.334,291.528 636.887,293.371C637.543,295.559 637.111,295.99 639.155,297.012Z" style="fill:rgb(60,56,54);"/>
            <path d="M554.503,243.057C580.649,243.069 580.822,242.902 581.447,243.552C582.051,244.181 582.31,259.404 581.299,260.254C579.895,261.435 553.592,259.975 552.203,261.098C551.189,261.918 551.461,262.214 551.465,290.5C551.467,301.948 552.036,304.869 563.497,304.891C581.004,304.924 582.049,304.369 582.364,306.519C582.408,306.818 582.399,320.462 582.396,320.493C582.183,323.069 580.948,322.596 564.501,322.672C555.515,322.713 533.044,325.25 529.415,304.513C528.519,299.392 529.56,263.162 528.654,261.391C527.748,259.622 510.299,261.654 508.903,260.104C508.12,259.235 508.206,259.096 508.439,245.499C508.488,242.585 509.845,242.99 521.498,242.994C525.278,242.996 528.61,244.196 529.101,239.457C530.209,228.74 529.31,220.861 531.383,220.206C531.883,220.048 549.758,219.945 550.617,220.28C552.217,220.903 551.356,228.929 551.584,240.498C551.641,243.402 552.961,242.816 554.503,243.057Z" style="fill:rgb(60,56,54);"/>
            <path d="M488.519,271.964C474.131,272.868 473.942,272.813 473.071,271.936C471.828,270.684 471.099,256.854 456.566,258.926C456.394,258.95 440.754,257.638 444.255,291.527C446.278,311.115 469.394,311.469 472.822,294.564C473.594,290.76 476.342,292.558 484.476,292.885C492.645,293.214 494.962,292.648 494.422,296.489C489.862,328.929 449.762,329.223 434.736,317.209C413.98,300.612 420.434,267.555 426.051,258.251C439.831,235.426 466.589,240.932 473.562,243.315C493.348,250.078 494.957,269.95 494.084,271.173C493.417,272.108 488.79,271.955 488.519,271.964Z" style="fill:rgb(60,56,54);"/>
            <path d="M735.949,295.456C736.179,296.378 736.364,300.518 739.719,303.221C745.138,307.586 762.647,302.811 763.507,306.498C763.528,306.589 763.574,306.585 763.587,319.498C763.591,323.636 761.687,322.806 752.503,322.864C745.583,322.908 719.601,326.019 714.084,301.6C712.052,292.606 713.682,233.43 713.123,231.56C712.493,229.451 711.617,230.097 694.502,230.052C691.114,230.043 689.669,230.877 689.644,227.499C689.543,214.141 689.356,213.994 690.152,213.168C690.868,212.425 691.061,212.625 725.5,212.563C734.034,212.548 735.724,211.835 735.729,215.503C735.797,259.193 735.544,285.161 735.949,295.456Z" style="fill:rgb(60,56,54);"/>
            <path d="M202.874,208.65C203.967,206.641 204.02,206.198 207.5,206.197C219.522,206.191 219.484,206.127 220.526,206.138C224.04,206.172 221.714,209.344 220.308,213.437C218.549,218.56 202.025,262.595 201.707,263.564C201.552,264.036 174.311,337.49 172.465,341.483C171.893,342.722 171.585,343.26 155.468,342.92C151.425,342.834 154.628,338.347 158.255,328.414C160.269,322.9 178.769,272.239 183.798,259.623C186.284,253.386 202.46,209.721 202.874,208.65Z" style="fill:rgb(152,151,26);"/>
            <path d="M96.54,258.936C105.786,258.799 108.864,260.396 117.585,267.399C131.821,278.831 132.527,260.298 135.5,259.968C136.294,259.88 147.117,265.242 147.441,265.565C149.8,267.913 142.239,282.36 136.142,286.003C125.794,292.186 117.176,287.713 113.699,286.113C107.773,283.385 95.28,266.66 89.637,286.54C88.857,289.287 86.902,287.894 80.432,284.644C78.157,283.501 74.236,283.685 76.531,277.511C83.04,260 92.7,259.529 96.54,258.936Z" style="fill:rgb(152,151,26);"/>
        </g>
    </g>
</svg>
